<?xml version="1.0" encoding="utf-8"?>
<svg xmlns="http://www.w3.org/2000/svg" viewBox="0 0 242.689 243.9005" fill="#FFF">
	<g id="SVGRepo_bgCarrier" stroke-width="0"/>
	<g id="SVGRepo_tracerCarrier" stroke-linecap="round" stroke-linejoin="round"/>
	<g id="SVGRepo_iconCarrier" transform="matrix(1, 0, 0, 1, 0.00010300000576890511, -10.100505828857418)">
		<path d="M 150.868 49.589 C 150.762 32.76 136.69 22.2 122.558 22.2 C 108.425 22.2 94.331 32.711 94.338 49.589 C 94.345 65.2 106.992 77.854 122.603 77.854 C 138.214 77.854 150.966 65.2 150.868 49.589 Z M 236.606 134.036 C 232.686 130.286 227.533 128.347 222.099 128.591 C 211.547 129.057 203.282 137.919 203.282 148.768 L 203.282 160.411 L 193.43 160.411 L 193.43 121.005 C 193.43 101.562 177.121 85.989 157.754 85.989 L 150.095 85.989 L 129.395 120.02 L 126.44 94.084 L 129.395 85.913 L 115.603 85.913 L 118.558 94.084 L 115.603 120.02 L 94.915 85.988 L 87.245 85.988 C 67.802 85.988 51.569 101.637 51.569 121.004 L 51.569 160.41 L 41.717 160.41 L 41.717 148.76 C 41.717 137.911 33.452 129.048 22.901 128.583 C 17.471 128.347 12.315 130.277 8.394 134.029 C 4.471 137.782 2.311 142.839 2.311 148.267 L 2.311 233.736 L 2.319 233.736 C 2.169 239.044 4.095 244.063 7.764 247.905 C 11.519 251.836 16.579 254.001 22.014 254.001 L 222.985 254.001 C 228.42 254.001 233.481 251.836 237.235 247.904 C 240.903 244.063 242.829 239.046 242.681 233.74 L 242.688 148.274 C 242.688 142.845 240.528 137.79 236.606 134.036 Z M 164.861 127.9 C 166.493 127.9 167.816 129.223 167.816 130.855 L 167.816 160.41 L 161.905 160.41 L 161.905 130.855 C 161.906 129.224 163.229 127.9 164.861 127.9 Z M 77.183 130.856 C 77.183 129.224 78.506 127.901 80.138 127.901 C 81.77 127.901 83.093 129.224 83.093 130.856 L 83.093 160.411 L 77.182 160.411 L 77.182 130.856 L 77.183 130.856 Z M 10.192 148.266 C 10.192 145.009 11.488 141.975 13.843 139.723 C 16.064 137.597 18.895 136.274 22.554 136.456 C 28.774 136.765 33.836 142.25 33.836 148.76 L 33.836 218.53 C 30.188 215.779 25.737 214.401 21.088 214.614 C 17.03 214.801 13.267 216.255 10.192 218.583 L 10.192 148.266 Z M 231.536 242.46 C 229.283 244.819 226.247 246.119 222.985 246.119 L 22.014 246.119 C 18.753 246.119 15.716 244.82 13.463 242.46 C 11.212 240.103 10.054 237.003 10.204 233.733 C 10.482 227.705 15.421 222.765 21.45 222.487 C 24.726 222.341 27.82 223.493 30.177 225.746 C 32.536 227.999 33.836 231.035 33.836 234.297 L 41.717 234.297 L 41.717 168.292 L 51.569 168.292 L 51.569 194.891 C 51.569 201.701 57.566 206.713 64.376 206.713 C 71.186 206.713 77.183 201.701 77.183 194.891 L 77.183 168.292 L 167.817 168.292 L 167.817 194.891 C 167.817 201.701 173.814 207.698 180.624 207.698 C 187.434 207.698 193.431 201.701 193.431 194.891 L 193.431 168.292 L 203.283 168.292 L 203.283 234.297 L 211.164 234.297 C 211.164 231.036 212.464 227.999 214.823 225.746 C 217.18 223.494 220.265 222.334 223.55 222.487 C 229.578 222.764 234.518 227.704 234.796 233.733 C 234.946 237.003 233.788 240.103 231.536 242.46 Z M 234.807 218.584 C 231.732 216.256 228.362 214.593 222.973 214.593 C 218.663 214.593 214.566 215.965 211.164 218.53 L 211.164 148.768 C 211.164 142.258 216.225 136.738 222.446 136.464 C 225.707 136.321 228.804 137.479 231.157 139.73 C 233.511 141.982 234.807 145.017 234.807 148.273 L 234.807 218.584 Z"/>
	</g>
</svg>